<mxfile host="app.diagrams.net" agent="Mozilla/5.0 (X11; Ubuntu; Linux x86_64; rv:132.0) Gecko/20100101 Firefox/132.0" version="26.0.9" pages="3">
  <diagram name="Page-1" id="fpzv_BiOIZe9mVY1JO3I">
    <mxGraphModel dx="1604" dy="795" grid="1" gridSize="10" guides="1" tooltips="1" connect="1" arrows="1" fold="1" page="1" pageScale="1" pageWidth="850" pageHeight="1100" math="0" shadow="0">
      <root>
        <mxCell id="0" />
        <mxCell id="1" parent="0" />
        <mxCell id="MTr5TJaLQFWfe16XWeEo-3" value="" style="edgeStyle=orthogonalEdgeStyle;rounded=0;orthogonalLoop=1;jettySize=auto;html=1;" edge="1" parent="1" source="MTr5TJaLQFWfe16XWeEo-1" target="MTr5TJaLQFWfe16XWeEo-2">
          <mxGeometry relative="1" as="geometry" />
        </mxCell>
        <mxCell id="MTr5TJaLQFWfe16XWeEo-1" value="start" style="ellipse;whiteSpace=wrap;html=1;" vertex="1" parent="1">
          <mxGeometry x="365" y="30" width="120" height="80" as="geometry" />
        </mxCell>
        <mxCell id="MTr5TJaLQFWfe16XWeEo-5" value="" style="edgeStyle=orthogonalEdgeStyle;rounded=0;orthogonalLoop=1;jettySize=auto;html=1;" edge="1" parent="1" source="MTr5TJaLQFWfe16XWeEo-2" target="MTr5TJaLQFWfe16XWeEo-4">
          <mxGeometry relative="1" as="geometry" />
        </mxCell>
        <mxCell id="MTr5TJaLQFWfe16XWeEo-2" value="read n" style="shape=parallelogram;perimeter=parallelogramPerimeter;whiteSpace=wrap;html=1;fixedSize=1;" vertex="1" parent="1">
          <mxGeometry x="365" y="200" width="120" height="60" as="geometry" />
        </mxCell>
        <mxCell id="MTr5TJaLQFWfe16XWeEo-7" value="" style="edgeStyle=orthogonalEdgeStyle;rounded=0;orthogonalLoop=1;jettySize=auto;html=1;" edge="1" parent="1" source="MTr5TJaLQFWfe16XWeEo-4" target="MTr5TJaLQFWfe16XWeEo-6">
          <mxGeometry relative="1" as="geometry" />
        </mxCell>
        <mxCell id="MTr5TJaLQFWfe16XWeEo-4" value="prodotto = 1, somma&amp;nbsp; = 0, i = 0" style="whiteSpace=wrap;html=1;" vertex="1" parent="1">
          <mxGeometry x="333" y="340" width="185" height="60" as="geometry" />
        </mxCell>
        <mxCell id="MTr5TJaLQFWfe16XWeEo-9" value="" style="edgeStyle=orthogonalEdgeStyle;rounded=0;orthogonalLoop=1;jettySize=auto;html=1;entryX=0.5;entryY=0;entryDx=0;entryDy=0;" edge="1" parent="1" source="MTr5TJaLQFWfe16XWeEo-6" target="MTr5TJaLQFWfe16XWeEo-10">
          <mxGeometry relative="1" as="geometry">
            <mxPoint x="425.5" y="630" as="targetPoint" />
          </mxGeometry>
        </mxCell>
        <mxCell id="TBZauLyM4wSZCjJcqTzW-1" value="Falso" style="edgeLabel;html=1;align=center;verticalAlign=middle;resizable=0;points=[];" vertex="1" connectable="0" parent="MTr5TJaLQFWfe16XWeEo-9">
          <mxGeometry x="-0.405" relative="1" as="geometry">
            <mxPoint as="offset" />
          </mxGeometry>
        </mxCell>
        <mxCell id="MTr5TJaLQFWfe16XWeEo-25" style="edgeStyle=orthogonalEdgeStyle;rounded=0;orthogonalLoop=1;jettySize=auto;html=1;exitX=0.5;exitY=1;exitDx=0;exitDy=0;" edge="1" parent="1" source="MTr5TJaLQFWfe16XWeEo-27" target="MTr5TJaLQFWfe16XWeEo-26">
          <mxGeometry relative="1" as="geometry">
            <mxPoint x="100" y="830" as="targetPoint" />
          </mxGeometry>
        </mxCell>
        <mxCell id="MTr5TJaLQFWfe16XWeEo-6" value="i &amp;gt; n" style="rhombus;whiteSpace=wrap;html=1;" vertex="1" parent="1">
          <mxGeometry x="385.5" y="470" width="80" height="80" as="geometry" />
        </mxCell>
        <mxCell id="MTr5TJaLQFWfe16XWeEo-12" value="" style="edgeStyle=orthogonalEdgeStyle;rounded=0;orthogonalLoop=1;jettySize=auto;html=1;" edge="1" parent="1" source="MTr5TJaLQFWfe16XWeEo-10" target="MTr5TJaLQFWfe16XWeEo-11">
          <mxGeometry relative="1" as="geometry" />
        </mxCell>
        <mxCell id="MTr5TJaLQFWfe16XWeEo-10" value="read x, y" style="shape=parallelogram;perimeter=parallelogramPerimeter;whiteSpace=wrap;html=1;fixedSize=1;" vertex="1" parent="1">
          <mxGeometry x="365" y="610" width="120" height="60" as="geometry" />
        </mxCell>
        <mxCell id="MTr5TJaLQFWfe16XWeEo-14" value="" style="edgeStyle=orthogonalEdgeStyle;rounded=0;orthogonalLoop=1;jettySize=auto;html=1;" edge="1" parent="1" source="MTr5TJaLQFWfe16XWeEo-11" target="MTr5TJaLQFWfe16XWeEo-13">
          <mxGeometry relative="1" as="geometry" />
        </mxCell>
        <mxCell id="TBZauLyM4wSZCjJcqTzW-4" value="False" style="edgeLabel;html=1;align=center;verticalAlign=middle;resizable=0;points=[];" vertex="1" connectable="0" parent="MTr5TJaLQFWfe16XWeEo-14">
          <mxGeometry x="-0.125" y="-2" relative="1" as="geometry">
            <mxPoint as="offset" />
          </mxGeometry>
        </mxCell>
        <mxCell id="MTr5TJaLQFWfe16XWeEo-16" value="" style="edgeStyle=orthogonalEdgeStyle;rounded=0;orthogonalLoop=1;jettySize=auto;html=1;" edge="1" parent="1" source="MTr5TJaLQFWfe16XWeEo-11" target="MTr5TJaLQFWfe16XWeEo-15">
          <mxGeometry relative="1" as="geometry" />
        </mxCell>
        <mxCell id="TBZauLyM4wSZCjJcqTzW-3" value="True" style="edgeLabel;html=1;align=center;verticalAlign=middle;resizable=0;points=[];" vertex="1" connectable="0" parent="MTr5TJaLQFWfe16XWeEo-16">
          <mxGeometry x="-0.5" y="2" relative="1" as="geometry">
            <mxPoint as="offset" />
          </mxGeometry>
        </mxCell>
        <mxCell id="MTr5TJaLQFWfe16XWeEo-11" value="&lt;div&gt;x &amp;gt;= 0&lt;/div&gt;&lt;div&gt;AND&lt;/div&gt;&lt;div&gt;y &amp;gt;= 0&lt;br&gt;&lt;/div&gt;" style="rhombus;whiteSpace=wrap;html=1;" vertex="1" parent="1">
          <mxGeometry x="385" y="740" width="80" height="80" as="geometry" />
        </mxCell>
        <mxCell id="MTr5TJaLQFWfe16XWeEo-18" value="" style="edgeStyle=orthogonalEdgeStyle;rounded=0;orthogonalLoop=1;jettySize=auto;html=1;" edge="1" parent="1" source="MTr5TJaLQFWfe16XWeEo-13" target="MTr5TJaLQFWfe16XWeEo-17">
          <mxGeometry relative="1" as="geometry" />
        </mxCell>
        <mxCell id="TBZauLyM4wSZCjJcqTzW-5" value="False" style="edgeLabel;html=1;align=center;verticalAlign=middle;resizable=0;points=[];" vertex="1" connectable="0" parent="MTr5TJaLQFWfe16XWeEo-18">
          <mxGeometry x="-0.4444" y="-3" relative="1" as="geometry">
            <mxPoint as="offset" />
          </mxGeometry>
        </mxCell>
        <mxCell id="MTr5TJaLQFWfe16XWeEo-32" style="edgeStyle=orthogonalEdgeStyle;rounded=0;orthogonalLoop=1;jettySize=auto;html=1;exitX=0;exitY=0.5;exitDx=0;exitDy=0;entryX=0;entryY=0.5;entryDx=0;entryDy=0;" edge="1" parent="1" source="MTr5TJaLQFWfe16XWeEo-13" target="MTr5TJaLQFWfe16XWeEo-30">
          <mxGeometry relative="1" as="geometry">
            <Array as="points">
              <mxPoint x="180" y="780" />
              <mxPoint x="180" y="1020" />
            </Array>
          </mxGeometry>
        </mxCell>
        <mxCell id="TBZauLyM4wSZCjJcqTzW-6" value="True" style="edgeLabel;html=1;align=center;verticalAlign=middle;resizable=0;points=[];" vertex="1" connectable="0" parent="MTr5TJaLQFWfe16XWeEo-32">
          <mxGeometry x="-0.9074" y="1" relative="1" as="geometry">
            <mxPoint as="offset" />
          </mxGeometry>
        </mxCell>
        <mxCell id="MTr5TJaLQFWfe16XWeEo-13" value="&lt;div&gt;x &amp;lt; 0&lt;/div&gt;&lt;div&gt;AND&lt;/div&gt;&lt;div&gt;y &amp;lt; 0&lt;br&gt;&lt;/div&gt;" style="rhombus;whiteSpace=wrap;html=1;" vertex="1" parent="1">
          <mxGeometry x="225" y="740" width="80" height="80" as="geometry" />
        </mxCell>
        <mxCell id="MTr5TJaLQFWfe16XWeEo-15" value="prodotto = prodotto * (x * y)" style="whiteSpace=wrap;html=1;" vertex="1" parent="1">
          <mxGeometry x="525" y="750" width="120" height="60" as="geometry" />
        </mxCell>
        <mxCell id="MTr5TJaLQFWfe16XWeEo-19" style="edgeStyle=orthogonalEdgeStyle;rounded=0;orthogonalLoop=1;jettySize=auto;html=1;exitX=1;exitY=0.5;exitDx=0;exitDy=0;" edge="1" parent="1" source="MTr5TJaLQFWfe16XWeEo-17" target="MTr5TJaLQFWfe16XWeEo-20">
          <mxGeometry relative="1" as="geometry">
            <mxPoint x="560" y="940" as="targetPoint" />
          </mxGeometry>
        </mxCell>
        <mxCell id="MTr5TJaLQFWfe16XWeEo-17" value="&lt;div&gt;somma = somma +&amp;nbsp;&lt;/div&gt;&lt;div&gt;(x + y)&lt;/div&gt;" style="whiteSpace=wrap;html=1;" vertex="1" parent="1">
          <mxGeometry x="205" y="910" width="120" height="60" as="geometry" />
        </mxCell>
        <mxCell id="MTr5TJaLQFWfe16XWeEo-22" style="edgeStyle=orthogonalEdgeStyle;rounded=0;orthogonalLoop=1;jettySize=auto;html=1;entryX=1;entryY=0.5;entryDx=0;entryDy=0;exitX=0.5;exitY=0;exitDx=0;exitDy=0;" edge="1" parent="1" source="MTr5TJaLQFWfe16XWeEo-23" target="MTr5TJaLQFWfe16XWeEo-6">
          <mxGeometry relative="1" as="geometry">
            <mxPoint x="760" y="680" as="sourcePoint" />
            <Array as="points" />
          </mxGeometry>
        </mxCell>
        <mxCell id="MTr5TJaLQFWfe16XWeEo-20" value="" style="ellipse;whiteSpace=wrap;html=1;aspect=fixed;" vertex="1" parent="1">
          <mxGeometry x="575" y="930" width="20" height="20" as="geometry" />
        </mxCell>
        <mxCell id="MTr5TJaLQFWfe16XWeEo-21" style="edgeStyle=orthogonalEdgeStyle;rounded=0;orthogonalLoop=1;jettySize=auto;html=1;exitX=0.5;exitY=1;exitDx=0;exitDy=0;entryX=0.5;entryY=0;entryDx=0;entryDy=0;" edge="1" parent="1" source="MTr5TJaLQFWfe16XWeEo-15" target="MTr5TJaLQFWfe16XWeEo-20">
          <mxGeometry relative="1" as="geometry" />
        </mxCell>
        <mxCell id="MTr5TJaLQFWfe16XWeEo-24" value="" style="edgeStyle=orthogonalEdgeStyle;rounded=0;orthogonalLoop=1;jettySize=auto;html=1;exitX=1;exitY=0.5;exitDx=0;exitDy=0;entryX=0.5;entryY=1;entryDx=0;entryDy=0;" edge="1" parent="1" source="MTr5TJaLQFWfe16XWeEo-20" target="MTr5TJaLQFWfe16XWeEo-23">
          <mxGeometry relative="1" as="geometry">
            <mxPoint x="595" y="940" as="sourcePoint" />
            <mxPoint x="466" y="510" as="targetPoint" />
            <Array as="points">
              <mxPoint x="705" y="940" />
            </Array>
          </mxGeometry>
        </mxCell>
        <mxCell id="MTr5TJaLQFWfe16XWeEo-23" value="i = i +1" style="rounded=0;whiteSpace=wrap;html=1;" vertex="1" parent="1">
          <mxGeometry x="645" y="650" width="120" height="60" as="geometry" />
        </mxCell>
        <mxCell id="MTr5TJaLQFWfe16XWeEo-26" value="end" style="ellipse;whiteSpace=wrap;html=1;" vertex="1" parent="1">
          <mxGeometry x="50" y="900" width="120" height="80" as="geometry" />
        </mxCell>
        <mxCell id="MTr5TJaLQFWfe16XWeEo-28" value="" style="edgeStyle=orthogonalEdgeStyle;rounded=0;orthogonalLoop=1;jettySize=auto;html=1;exitX=0;exitY=0.5;exitDx=0;exitDy=0;" edge="1" parent="1" source="MTr5TJaLQFWfe16XWeEo-6" target="MTr5TJaLQFWfe16XWeEo-27">
          <mxGeometry relative="1" as="geometry">
            <mxPoint x="110" y="900" as="targetPoint" />
            <mxPoint x="386" y="510" as="sourcePoint" />
          </mxGeometry>
        </mxCell>
        <mxCell id="TBZauLyM4wSZCjJcqTzW-2" value="True" style="edgeLabel;html=1;align=center;verticalAlign=middle;resizable=0;points=[];" vertex="1" connectable="0" parent="MTr5TJaLQFWfe16XWeEo-28">
          <mxGeometry x="-0.7565" y="-3" relative="1" as="geometry">
            <mxPoint as="offset" />
          </mxGeometry>
        </mxCell>
        <mxCell id="MTr5TJaLQFWfe16XWeEo-27" value="Write somma, prodotto" style="shape=parallelogram;perimeter=parallelogramPerimeter;whiteSpace=wrap;html=1;fixedSize=1;" vertex="1" parent="1">
          <mxGeometry x="50" y="600" width="120" height="60" as="geometry" />
        </mxCell>
        <mxCell id="MTr5TJaLQFWfe16XWeEo-33" style="edgeStyle=orthogonalEdgeStyle;rounded=0;orthogonalLoop=1;jettySize=auto;html=1;exitX=1;exitY=0.5;exitDx=0;exitDy=0;entryX=0.5;entryY=1;entryDx=0;entryDy=0;" edge="1" parent="1" source="MTr5TJaLQFWfe16XWeEo-30" target="MTr5TJaLQFWfe16XWeEo-20">
          <mxGeometry relative="1" as="geometry" />
        </mxCell>
        <mxCell id="MTr5TJaLQFWfe16XWeEo-30" value="Write &quot;Errore&quot;" style="shape=parallelogram;perimeter=parallelogramPerimeter;whiteSpace=wrap;html=1;fixedSize=1;" vertex="1" parent="1">
          <mxGeometry x="360" y="990" width="120" height="60" as="geometry" />
        </mxCell>
      </root>
    </mxGraphModel>
  </diagram>
  <diagram id="qnCZ0vyvKQatBWCstNt2" name="Page-2">
    <mxGraphModel dx="1604" dy="795" grid="1" gridSize="10" guides="1" tooltips="1" connect="1" arrows="1" fold="1" page="1" pageScale="1" pageWidth="850" pageHeight="1100" math="0" shadow="0">
      <root>
        <mxCell id="0" />
        <mxCell id="1" parent="0" />
        <mxCell id="PXLsfiz2ml0hgdNaDbM2-2" style="edgeStyle=orthogonalEdgeStyle;rounded=0;orthogonalLoop=1;jettySize=auto;html=1;" edge="1" parent="1" source="PXLsfiz2ml0hgdNaDbM2-1" target="PXLsfiz2ml0hgdNaDbM2-3">
          <mxGeometry relative="1" as="geometry">
            <mxPoint x="425" y="220" as="targetPoint" />
          </mxGeometry>
        </mxCell>
        <mxCell id="PXLsfiz2ml0hgdNaDbM2-1" value="start" style="ellipse;whiteSpace=wrap;html=1;" vertex="1" parent="1">
          <mxGeometry x="365" y="60" width="120" height="80" as="geometry" />
        </mxCell>
        <mxCell id="PXLsfiz2ml0hgdNaDbM2-5" value="" style="edgeStyle=orthogonalEdgeStyle;rounded=0;orthogonalLoop=1;jettySize=auto;html=1;" edge="1" parent="1" source="PXLsfiz2ml0hgdNaDbM2-3" target="PXLsfiz2ml0hgdNaDbM2-4">
          <mxGeometry relative="1" as="geometry" />
        </mxCell>
        <mxCell id="PXLsfiz2ml0hgdNaDbM2-3" value="read x, y, z" style="shape=parallelogram;perimeter=parallelogramPerimeter;whiteSpace=wrap;html=1;fixedSize=1;" vertex="1" parent="1">
          <mxGeometry x="365" y="190" width="120" height="60" as="geometry" />
        </mxCell>
        <mxCell id="PXLsfiz2ml0hgdNaDbM2-7" value="" style="edgeStyle=orthogonalEdgeStyle;rounded=0;orthogonalLoop=1;jettySize=auto;html=1;" edge="1" parent="1" source="PXLsfiz2ml0hgdNaDbM2-4" target="PXLsfiz2ml0hgdNaDbM2-6">
          <mxGeometry relative="1" as="geometry" />
        </mxCell>
        <mxCell id="dduh0jb085AKFP6joESm-13" value="True" style="edgeLabel;html=1;align=center;verticalAlign=middle;resizable=0;points=[];" vertex="1" connectable="0" parent="PXLsfiz2ml0hgdNaDbM2-7">
          <mxGeometry x="0.1" relative="1" as="geometry">
            <mxPoint as="offset" />
          </mxGeometry>
        </mxCell>
        <mxCell id="dduh0jb085AKFP6joESm-6" style="edgeStyle=orthogonalEdgeStyle;rounded=0;orthogonalLoop=1;jettySize=auto;html=1;exitX=1;exitY=0.5;exitDx=0;exitDy=0;" edge="1" parent="1" source="PXLsfiz2ml0hgdNaDbM2-4" target="dduh0jb085AKFP6joESm-7">
          <mxGeometry relative="1" as="geometry">
            <mxPoint x="760" y="430" as="targetPoint" />
          </mxGeometry>
        </mxCell>
        <mxCell id="dduh0jb085AKFP6joESm-10" value="False" style="edgeLabel;html=1;align=center;verticalAlign=middle;resizable=0;points=[];" vertex="1" connectable="0" parent="dduh0jb085AKFP6joESm-6">
          <mxGeometry x="-0.6279" relative="1" as="geometry">
            <mxPoint as="offset" />
          </mxGeometry>
        </mxCell>
        <mxCell id="PXLsfiz2ml0hgdNaDbM2-4" value="&lt;div&gt;x &amp;gt;= 0&lt;/div&gt;&lt;div&gt;AND&lt;/div&gt;&lt;div&gt;y &amp;gt;= 0&lt;/div&gt;&lt;div&gt;AND&lt;/div&gt;&lt;div&gt;z &amp;gt;= 0&lt;br&gt;&lt;/div&gt;" style="rhombus;whiteSpace=wrap;html=1;" vertex="1" parent="1">
          <mxGeometry x="313" y="320" width="225" height="80" as="geometry" />
        </mxCell>
        <mxCell id="PXLsfiz2ml0hgdNaDbM2-9" value="" style="edgeStyle=orthogonalEdgeStyle;rounded=0;orthogonalLoop=1;jettySize=auto;html=1;" edge="1" parent="1" source="PXLsfiz2ml0hgdNaDbM2-6" target="PXLsfiz2ml0hgdNaDbM2-8">
          <mxGeometry relative="1" as="geometry" />
        </mxCell>
        <mxCell id="dduh0jb085AKFP6joESm-14" value="True" style="edgeLabel;html=1;align=center;verticalAlign=middle;resizable=0;points=[];" vertex="1" connectable="0" parent="PXLsfiz2ml0hgdNaDbM2-9">
          <mxGeometry x="-0.0371" y="2" relative="1" as="geometry">
            <mxPoint x="-1" as="offset" />
          </mxGeometry>
        </mxCell>
        <mxCell id="dduh0jb085AKFP6joESm-3" style="edgeStyle=orthogonalEdgeStyle;rounded=0;orthogonalLoop=1;jettySize=auto;html=1;exitX=0.5;exitY=1;exitDx=0;exitDy=0;entryX=1;entryY=0.5;entryDx=0;entryDy=0;" edge="1" parent="1" source="dduh0jb085AKFP6joESm-4" target="PXLsfiz2ml0hgdNaDbM2-24">
          <mxGeometry relative="1" as="geometry">
            <Array as="points">
              <mxPoint x="770" y="1100" />
            </Array>
          </mxGeometry>
        </mxCell>
        <mxCell id="PXLsfiz2ml0hgdNaDbM2-6" value="&lt;div&gt;x % 1 == 0&lt;/div&gt;&lt;div&gt;AND&lt;/div&gt;&lt;div&gt;y % 1 == 0&lt;/div&gt;&lt;div&gt;AND&lt;/div&gt;&lt;div&gt;z %1 == 0&lt;br&gt;&lt;/div&gt;" style="rhombus;whiteSpace=wrap;html=1;" vertex="1" parent="1">
          <mxGeometry x="313" y="480" width="225" height="90" as="geometry" />
        </mxCell>
        <mxCell id="PXLsfiz2ml0hgdNaDbM2-12" value="" style="edgeStyle=orthogonalEdgeStyle;rounded=0;orthogonalLoop=1;jettySize=auto;html=1;" edge="1" parent="1" source="PXLsfiz2ml0hgdNaDbM2-8" target="PXLsfiz2ml0hgdNaDbM2-11">
          <mxGeometry relative="1" as="geometry" />
        </mxCell>
        <mxCell id="dduh0jb085AKFP6joESm-2" value="True" style="edgeLabel;html=1;align=center;verticalAlign=middle;resizable=0;points=[];" vertex="1" connectable="0" parent="PXLsfiz2ml0hgdNaDbM2-12">
          <mxGeometry x="-0.6843" relative="1" as="geometry">
            <mxPoint as="offset" />
          </mxGeometry>
        </mxCell>
        <mxCell id="PXLsfiz2ml0hgdNaDbM2-14" value="" style="edgeStyle=orthogonalEdgeStyle;rounded=0;orthogonalLoop=1;jettySize=auto;html=1;" edge="1" parent="1" source="PXLsfiz2ml0hgdNaDbM2-18" target="PXLsfiz2ml0hgdNaDbM2-13">
          <mxGeometry relative="1" as="geometry" />
        </mxCell>
        <mxCell id="PXLsfiz2ml0hgdNaDbM2-8" value="(x + y + z) % 2 == 0" style="rhombus;whiteSpace=wrap;html=1;" vertex="1" parent="1">
          <mxGeometry x="353.25" y="655" width="144.5" height="80" as="geometry" />
        </mxCell>
        <mxCell id="PXLsfiz2ml0hgdNaDbM2-16" value="" style="edgeStyle=orthogonalEdgeStyle;rounded=0;orthogonalLoop=1;jettySize=auto;html=1;" edge="1" parent="1" source="PXLsfiz2ml0hgdNaDbM2-11" target="PXLsfiz2ml0hgdNaDbM2-15">
          <mxGeometry relative="1" as="geometry" />
        </mxCell>
        <mxCell id="dduh0jb085AKFP6joESm-15" value="True" style="edgeLabel;html=1;align=center;verticalAlign=middle;resizable=0;points=[];" vertex="1" connectable="0" parent="PXLsfiz2ml0hgdNaDbM2-16">
          <mxGeometry x="-0.3262" y="4" relative="1" as="geometry">
            <mxPoint y="1" as="offset" />
          </mxGeometry>
        </mxCell>
        <mxCell id="PXLsfiz2ml0hgdNaDbM2-17" style="edgeStyle=orthogonalEdgeStyle;rounded=0;orthogonalLoop=1;jettySize=auto;html=1;exitX=0;exitY=0.5;exitDx=0;exitDy=0;" edge="1" parent="1" source="PXLsfiz2ml0hgdNaDbM2-11" target="PXLsfiz2ml0hgdNaDbM2-18">
          <mxGeometry relative="1" as="geometry">
            <mxPoint x="290" y="720" as="targetPoint" />
          </mxGeometry>
        </mxCell>
        <mxCell id="dduh0jb085AKFP6joESm-16" value="False" style="edgeLabel;html=1;align=center;verticalAlign=middle;resizable=0;points=[];" vertex="1" connectable="0" parent="PXLsfiz2ml0hgdNaDbM2-17">
          <mxGeometry x="-0.8137" y="4" relative="1" as="geometry">
            <mxPoint as="offset" />
          </mxGeometry>
        </mxCell>
        <mxCell id="PXLsfiz2ml0hgdNaDbM2-11" value="&lt;div&gt;x % 3 == 0&lt;/div&gt;&lt;div&gt;AND&lt;/div&gt;&lt;div&gt;y % 5 == 0&lt;/div&gt;&lt;div&gt;AND&lt;/div&gt;&lt;div&gt;z % 7 == 0&lt;br&gt;&lt;/div&gt;" style="rhombus;whiteSpace=wrap;html=1;" vertex="1" parent="1">
          <mxGeometry x="338" y="830" width="174.5" height="105" as="geometry" />
        </mxCell>
        <mxCell id="PXLsfiz2ml0hgdNaDbM2-20" style="edgeStyle=orthogonalEdgeStyle;rounded=0;orthogonalLoop=1;jettySize=auto;html=1;exitX=0.5;exitY=1;exitDx=0;exitDy=0;" edge="1" parent="1" source="PXLsfiz2ml0hgdNaDbM2-13" target="PXLsfiz2ml0hgdNaDbM2-21">
          <mxGeometry relative="1" as="geometry">
            <mxPoint x="230" y="950" as="targetPoint" />
            <Array as="points">
              <mxPoint x="201" y="985" />
            </Array>
          </mxGeometry>
        </mxCell>
        <mxCell id="PXLsfiz2ml0hgdNaDbM2-13" value="Write &quot;regole non rispettate&quot;" style="shape=parallelogram;perimeter=parallelogramPerimeter;whiteSpace=wrap;html=1;fixedSize=1;" vertex="1" parent="1">
          <mxGeometry x="141" y="665" width="120" height="60" as="geometry" />
        </mxCell>
        <mxCell id="PXLsfiz2ml0hgdNaDbM2-22" style="edgeStyle=orthogonalEdgeStyle;rounded=0;orthogonalLoop=1;jettySize=auto;html=1;exitX=0.5;exitY=1;exitDx=0;exitDy=0;entryX=1;entryY=0.5;entryDx=0;entryDy=0;" edge="1" parent="1" source="PXLsfiz2ml0hgdNaDbM2-15" target="PXLsfiz2ml0hgdNaDbM2-21">
          <mxGeometry relative="1" as="geometry" />
        </mxCell>
        <mxCell id="PXLsfiz2ml0hgdNaDbM2-15" value="Write &quot;regole rispettate&quot;" style="shape=parallelogram;perimeter=parallelogramPerimeter;whiteSpace=wrap;html=1;fixedSize=1;" vertex="1" parent="1">
          <mxGeometry x="619.75" y="852.5" width="120" height="60" as="geometry" />
        </mxCell>
        <mxCell id="PXLsfiz2ml0hgdNaDbM2-19" value="" style="edgeStyle=orthogonalEdgeStyle;rounded=0;orthogonalLoop=1;jettySize=auto;html=1;" edge="1" parent="1" source="PXLsfiz2ml0hgdNaDbM2-8" target="PXLsfiz2ml0hgdNaDbM2-18">
          <mxGeometry relative="1" as="geometry">
            <mxPoint x="353" y="695" as="sourcePoint" />
            <mxPoint x="251" y="695" as="targetPoint" />
          </mxGeometry>
        </mxCell>
        <mxCell id="dduh0jb085AKFP6joESm-1" value="False" style="edgeLabel;html=1;align=center;verticalAlign=middle;resizable=0;points=[];" vertex="1" connectable="0" parent="PXLsfiz2ml0hgdNaDbM2-19">
          <mxGeometry x="-0.3521" y="2" relative="1" as="geometry">
            <mxPoint as="offset" />
          </mxGeometry>
        </mxCell>
        <mxCell id="PXLsfiz2ml0hgdNaDbM2-18" value="" style="ellipse;whiteSpace=wrap;html=1;aspect=fixed;" vertex="1" parent="1">
          <mxGeometry x="280" y="685" width="20" height="20" as="geometry" />
        </mxCell>
        <mxCell id="PXLsfiz2ml0hgdNaDbM2-23" style="edgeStyle=orthogonalEdgeStyle;rounded=0;orthogonalLoop=1;jettySize=auto;html=1;exitX=0.5;exitY=1;exitDx=0;exitDy=0;" edge="1" parent="1" source="PXLsfiz2ml0hgdNaDbM2-21" target="PXLsfiz2ml0hgdNaDbM2-24">
          <mxGeometry relative="1" as="geometry">
            <mxPoint x="425" y="1100" as="targetPoint" />
          </mxGeometry>
        </mxCell>
        <mxCell id="PXLsfiz2ml0hgdNaDbM2-21" value="" style="ellipse;whiteSpace=wrap;html=1;aspect=fixed;" vertex="1" parent="1">
          <mxGeometry x="410" y="970" width="30" height="30" as="geometry" />
        </mxCell>
        <mxCell id="PXLsfiz2ml0hgdNaDbM2-24" value="end" style="ellipse;whiteSpace=wrap;html=1;" vertex="1" parent="1">
          <mxGeometry x="365" y="1060" width="120" height="80" as="geometry" />
        </mxCell>
        <mxCell id="dduh0jb085AKFP6joESm-5" value="" style="edgeStyle=orthogonalEdgeStyle;rounded=0;orthogonalLoop=1;jettySize=auto;html=1;exitX=1;exitY=0.5;exitDx=0;exitDy=0;entryX=0;entryY=0.5;entryDx=0;entryDy=0;" edge="1" parent="1" source="PXLsfiz2ml0hgdNaDbM2-6" target="dduh0jb085AKFP6joESm-7">
          <mxGeometry relative="1" as="geometry">
            <mxPoint x="538" y="525" as="sourcePoint" />
            <mxPoint x="485" y="1100" as="targetPoint" />
            <Array as="points" />
          </mxGeometry>
        </mxCell>
        <mxCell id="dduh0jb085AKFP6joESm-9" value="False" style="edgeLabel;html=1;align=center;verticalAlign=middle;resizable=0;points=[];" vertex="1" connectable="0" parent="dduh0jb085AKFP6joESm-5">
          <mxGeometry x="-0.4054" relative="1" as="geometry">
            <mxPoint as="offset" />
          </mxGeometry>
        </mxCell>
        <mxCell id="dduh0jb085AKFP6joESm-4" value="Write &quot;Errore. Devi inserire numeri interi" style="shape=parallelogram;perimeter=parallelogramPerimeter;whiteSpace=wrap;html=1;fixedSize=1;" vertex="1" parent="1">
          <mxGeometry x="710" y="665" width="120" height="60" as="geometry" />
        </mxCell>
        <mxCell id="dduh0jb085AKFP6joESm-8" style="edgeStyle=orthogonalEdgeStyle;rounded=0;orthogonalLoop=1;jettySize=auto;html=1;exitX=0.5;exitY=1;exitDx=0;exitDy=0;entryX=0.5;entryY=0;entryDx=0;entryDy=0;" edge="1" parent="1" source="dduh0jb085AKFP6joESm-7" target="dduh0jb085AKFP6joESm-4">
          <mxGeometry relative="1" as="geometry" />
        </mxCell>
        <mxCell id="dduh0jb085AKFP6joESm-7" value="" style="ellipse;whiteSpace=wrap;html=1;aspect=fixed;" vertex="1" parent="1">
          <mxGeometry x="760" y="515" width="20" height="20" as="geometry" />
        </mxCell>
      </root>
    </mxGraphModel>
  </diagram>
  <diagram id="rMCeqgHe1IqRVxZhRPgI" name="Page-3">
    <mxGraphModel dx="2538" dy="1937" grid="1" gridSize="10" guides="1" tooltips="1" connect="1" arrows="1" fold="1" page="1" pageScale="1" pageWidth="850" pageHeight="1100" math="0" shadow="0">
      <root>
        <mxCell id="0" />
        <mxCell id="1" parent="0" />
        <mxCell id="JOSGX9OFzxFhcf6wayFj-3" value="" style="edgeStyle=orthogonalEdgeStyle;rounded=0;orthogonalLoop=1;jettySize=auto;html=1;entryX=0.5;entryY=0;entryDx=0;entryDy=0;" edge="1" parent="1" source="JOSGX9OFzxFhcf6wayFj-1" target="JOSGX9OFzxFhcf6wayFj-4">
          <mxGeometry relative="1" as="geometry">
            <mxPoint x="425" y="110" as="targetPoint" />
          </mxGeometry>
        </mxCell>
        <mxCell id="JOSGX9OFzxFhcf6wayFj-1" value="start" style="ellipse;whiteSpace=wrap;html=1;" vertex="1" parent="1">
          <mxGeometry x="365" y="-60" width="120" height="80" as="geometry" />
        </mxCell>
        <mxCell id="JOSGX9OFzxFhcf6wayFj-7" value="" style="edgeStyle=orthogonalEdgeStyle;rounded=0;orthogonalLoop=1;jettySize=auto;html=1;" edge="1" parent="1" source="JOSGX9OFzxFhcf6wayFj-4" target="JOSGX9OFzxFhcf6wayFj-6">
          <mxGeometry relative="1" as="geometry" />
        </mxCell>
        <mxCell id="JOSGX9OFzxFhcf6wayFj-4" value="somma = 0, i = 0" style="whiteSpace=wrap;html=1;" vertex="1" parent="1">
          <mxGeometry x="365" y="70" width="120" height="60" as="geometry" />
        </mxCell>
        <mxCell id="JOSGX9OFzxFhcf6wayFj-9" value="" style="edgeStyle=orthogonalEdgeStyle;rounded=0;orthogonalLoop=1;jettySize=auto;html=1;" edge="1" parent="1" source="JOSGX9OFzxFhcf6wayFj-6" target="JOSGX9OFzxFhcf6wayFj-8">
          <mxGeometry relative="1" as="geometry" />
        </mxCell>
        <mxCell id="2rnmiaXH-qt7gfL0jKxg-12" value="" style="edgeStyle=orthogonalEdgeStyle;rounded=0;orthogonalLoop=1;jettySize=auto;html=1;" edge="1" parent="1" source="JOSGX9OFzxFhcf6wayFj-6" target="2rnmiaXH-qt7gfL0jKxg-11">
          <mxGeometry relative="1" as="geometry" />
        </mxCell>
        <mxCell id="JOSGX9OFzxFhcf6wayFj-6" value="&lt;div&gt;i &amp;lt; 100&lt;br&gt;&lt;/div&gt;" style="rhombus;whiteSpace=wrap;html=1;" vertex="1" parent="1">
          <mxGeometry x="385" y="200" width="80" height="80" as="geometry" />
        </mxCell>
        <mxCell id="JOSGX9OFzxFhcf6wayFj-11" value="" style="edgeStyle=orthogonalEdgeStyle;rounded=0;orthogonalLoop=1;jettySize=auto;html=1;" edge="1" parent="1" source="JOSGX9OFzxFhcf6wayFj-8" target="JOSGX9OFzxFhcf6wayFj-10">
          <mxGeometry relative="1" as="geometry" />
        </mxCell>
        <mxCell id="JOSGX9OFzxFhcf6wayFj-8" value="read D1, D2" style="shape=parallelogram;perimeter=parallelogramPerimeter;whiteSpace=wrap;html=1;fixedSize=1;" vertex="1" parent="1">
          <mxGeometry x="365" y="370" width="120" height="60" as="geometry" />
        </mxCell>
        <mxCell id="JOSGX9OFzxFhcf6wayFj-13" value="" style="edgeStyle=orthogonalEdgeStyle;rounded=0;orthogonalLoop=1;jettySize=auto;html=1;" edge="1" parent="1" source="JOSGX9OFzxFhcf6wayFj-14" target="JOSGX9OFzxFhcf6wayFj-12">
          <mxGeometry relative="1" as="geometry" />
        </mxCell>
        <mxCell id="JOSGX9OFzxFhcf6wayFj-10" value="Write &quot;lancia i dadi&quot;" style="shape=parallelogram;perimeter=parallelogramPerimeter;whiteSpace=wrap;html=1;fixedSize=1;" vertex="1" parent="1">
          <mxGeometry x="358" y="510" width="135" height="60" as="geometry" />
        </mxCell>
        <mxCell id="2rnmiaXH-qt7gfL0jKxg-2" value="" style="edgeStyle=orthogonalEdgeStyle;rounded=0;orthogonalLoop=1;jettySize=auto;html=1;" edge="1" parent="1" source="JOSGX9OFzxFhcf6wayFj-12" target="2rnmiaXH-qt7gfL0jKxg-1">
          <mxGeometry relative="1" as="geometry" />
        </mxCell>
        <mxCell id="2rnmiaXH-qt7gfL0jKxg-24" value="True" style="edgeLabel;html=1;align=center;verticalAlign=middle;resizable=0;points=[];" vertex="1" connectable="0" parent="2rnmiaXH-qt7gfL0jKxg-2">
          <mxGeometry x="-0.1517" y="-3" relative="1" as="geometry">
            <mxPoint as="offset" />
          </mxGeometry>
        </mxCell>
        <mxCell id="2rnmiaXH-qt7gfL0jKxg-4" value="" style="edgeStyle=orthogonalEdgeStyle;rounded=0;orthogonalLoop=1;jettySize=auto;html=1;" edge="1" parent="1" source="JOSGX9OFzxFhcf6wayFj-12" target="2rnmiaXH-qt7gfL0jKxg-3">
          <mxGeometry relative="1" as="geometry" />
        </mxCell>
        <mxCell id="2rnmiaXH-qt7gfL0jKxg-25" value="False" style="edgeLabel;html=1;align=center;verticalAlign=middle;resizable=0;points=[];" vertex="1" connectable="0" parent="2rnmiaXH-qt7gfL0jKxg-4">
          <mxGeometry x="-0.2206" y="3" relative="1" as="geometry">
            <mxPoint as="offset" />
          </mxGeometry>
        </mxCell>
        <mxCell id="JOSGX9OFzxFhcf6wayFj-12" value="&lt;div&gt;D1 % 2 == 0&lt;/div&gt;&lt;div&gt;AND&lt;/div&gt;&lt;div&gt;D2 % 2 == 0&lt;/div&gt;&lt;div&gt;AND&lt;/div&gt;&lt;div&gt;somma &amp;gt; 8&lt;br&gt;&lt;/div&gt;" style="rhombus;whiteSpace=wrap;html=1;" vertex="1" parent="1">
          <mxGeometry x="348.25" y="720" width="154.5" height="130" as="geometry" />
        </mxCell>
        <mxCell id="JOSGX9OFzxFhcf6wayFj-15" value="" style="edgeStyle=orthogonalEdgeStyle;rounded=0;orthogonalLoop=1;jettySize=auto;html=1;" edge="1" parent="1" source="JOSGX9OFzxFhcf6wayFj-10" target="JOSGX9OFzxFhcf6wayFj-14">
          <mxGeometry relative="1" as="geometry">
            <mxPoint x="426" y="570" as="sourcePoint" />
            <mxPoint x="426" y="710" as="targetPoint" />
          </mxGeometry>
        </mxCell>
        <mxCell id="JOSGX9OFzxFhcf6wayFj-14" value="somma = D1 + D2" style="rounded=0;whiteSpace=wrap;html=1;" vertex="1" parent="1">
          <mxGeometry x="365.5" y="620" width="120" height="60" as="geometry" />
        </mxCell>
        <mxCell id="2rnmiaXH-qt7gfL0jKxg-20" style="edgeStyle=orthogonalEdgeStyle;rounded=0;orthogonalLoop=1;jettySize=auto;html=1;exitX=0.5;exitY=0;exitDx=0;exitDy=0;" edge="1" parent="1" source="2rnmiaXH-qt7gfL0jKxg-1" target="2rnmiaXH-qt7gfL0jKxg-21">
          <mxGeometry relative="1" as="geometry">
            <mxPoint x="650" y="260" as="targetPoint" />
          </mxGeometry>
        </mxCell>
        <mxCell id="2rnmiaXH-qt7gfL0jKxg-22" style="edgeStyle=orthogonalEdgeStyle;rounded=0;orthogonalLoop=1;jettySize=auto;html=1;exitX=1;exitY=0.5;exitDx=0;exitDy=0;entryX=1;entryY=0.5;entryDx=0;entryDy=0;" edge="1" parent="1" source="2rnmiaXH-qt7gfL0jKxg-27" target="2rnmiaXH-qt7gfL0jKxg-21">
          <mxGeometry relative="1" as="geometry">
            <mxPoint x="780" y="540" as="targetPoint" />
          </mxGeometry>
        </mxCell>
        <mxCell id="2rnmiaXH-qt7gfL0jKxg-1" value="i = 100" style="whiteSpace=wrap;html=1;" vertex="1" parent="1">
          <mxGeometry x="600" y="755" width="120" height="60" as="geometry" />
        </mxCell>
        <mxCell id="2rnmiaXH-qt7gfL0jKxg-6" value="" style="edgeStyle=orthogonalEdgeStyle;rounded=0;orthogonalLoop=1;jettySize=auto;html=1;" edge="1" parent="1" source="2rnmiaXH-qt7gfL0jKxg-3" target="2rnmiaXH-qt7gfL0jKxg-5">
          <mxGeometry relative="1" as="geometry" />
        </mxCell>
        <mxCell id="2rnmiaXH-qt7gfL0jKxg-31" value="Text" style="edgeLabel;html=1;align=center;verticalAlign=middle;resizable=0;points=[];" vertex="1" connectable="0" parent="2rnmiaXH-qt7gfL0jKxg-6">
          <mxGeometry x="0.1204" y="3" relative="1" as="geometry">
            <mxPoint as="offset" />
          </mxGeometry>
        </mxCell>
        <mxCell id="2rnmiaXH-qt7gfL0jKxg-8" value="" style="edgeStyle=orthogonalEdgeStyle;rounded=0;orthogonalLoop=1;jettySize=auto;html=1;" edge="1" parent="1" source="2rnmiaXH-qt7gfL0jKxg-3" target="2rnmiaXH-qt7gfL0jKxg-7">
          <mxGeometry relative="1" as="geometry" />
        </mxCell>
        <mxCell id="2rnmiaXH-qt7gfL0jKxg-30" value="true" style="edgeLabel;html=1;align=center;verticalAlign=middle;resizable=0;points=[];" vertex="1" connectable="0" parent="2rnmiaXH-qt7gfL0jKxg-8">
          <mxGeometry x="-0.2927" y="-2" relative="1" as="geometry">
            <mxPoint as="offset" />
          </mxGeometry>
        </mxCell>
        <mxCell id="2rnmiaXH-qt7gfL0jKxg-3" value="&lt;div&gt;D1 == 6&lt;/div&gt;&lt;div&gt;OR &lt;br&gt;&lt;/div&gt;&lt;div&gt;somma == 7&lt;br&gt;&lt;/div&gt;" style="rhombus;whiteSpace=wrap;html=1;" vertex="1" parent="1">
          <mxGeometry x="373" y="955" width="104.5" height="95" as="geometry" />
        </mxCell>
        <mxCell id="2rnmiaXH-qt7gfL0jKxg-10" value="" style="edgeStyle=orthogonalEdgeStyle;rounded=0;orthogonalLoop=1;jettySize=auto;html=1;" edge="1" parent="1" source="2rnmiaXH-qt7gfL0jKxg-5" target="2rnmiaXH-qt7gfL0jKxg-9">
          <mxGeometry relative="1" as="geometry" />
        </mxCell>
        <mxCell id="2rnmiaXH-qt7gfL0jKxg-5" value="i = 0" style="whiteSpace=wrap;html=1;" vertex="1" parent="1">
          <mxGeometry x="180.75" y="972.5" width="120" height="60" as="geometry" />
        </mxCell>
        <mxCell id="2rnmiaXH-qt7gfL0jKxg-26" style="edgeStyle=orthogonalEdgeStyle;rounded=0;orthogonalLoop=1;jettySize=auto;html=1;exitX=1;exitY=0.5;exitDx=0;exitDy=0;" edge="1" parent="1" source="2rnmiaXH-qt7gfL0jKxg-7" target="2rnmiaXH-qt7gfL0jKxg-27">
          <mxGeometry relative="1" as="geometry">
            <mxPoint x="740" y="820" as="targetPoint" />
          </mxGeometry>
        </mxCell>
        <mxCell id="2rnmiaXH-qt7gfL0jKxg-7" value="i = i + 1" style="whiteSpace=wrap;html=1;" vertex="1" parent="1">
          <mxGeometry x="549.75" y="972.5" width="120" height="60" as="geometry" />
        </mxCell>
        <mxCell id="2rnmiaXH-qt7gfL0jKxg-17" style="edgeStyle=orthogonalEdgeStyle;rounded=0;orthogonalLoop=1;jettySize=auto;html=1;exitX=0.5;exitY=0;exitDx=0;exitDy=0;entryX=0;entryY=0.5;entryDx=0;entryDy=0;" edge="1" parent="1" source="2rnmiaXH-qt7gfL0jKxg-9" target="2rnmiaXH-qt7gfL0jKxg-16">
          <mxGeometry relative="1" as="geometry" />
        </mxCell>
        <mxCell id="2rnmiaXH-qt7gfL0jKxg-9" value="Write &quot;hai perso&quot;" style="shape=parallelogram;perimeter=parallelogramPerimeter;whiteSpace=wrap;html=1;fixedSize=1;" vertex="1" parent="1">
          <mxGeometry x="-19.25" y="972.5" width="120" height="60" as="geometry" />
        </mxCell>
        <mxCell id="2rnmiaXH-qt7gfL0jKxg-15" style="edgeStyle=orthogonalEdgeStyle;rounded=0;orthogonalLoop=1;jettySize=auto;html=1;exitX=0.5;exitY=1;exitDx=0;exitDy=0;" edge="1" parent="1" source="2rnmiaXH-qt7gfL0jKxg-11" target="2rnmiaXH-qt7gfL0jKxg-16">
          <mxGeometry relative="1" as="geometry">
            <mxPoint x="241" y="440" as="targetPoint" />
          </mxGeometry>
        </mxCell>
        <mxCell id="2rnmiaXH-qt7gfL0jKxg-11" value="Write &quot;hai vinto&quot;" style="shape=parallelogram;perimeter=parallelogramPerimeter;whiteSpace=wrap;html=1;fixedSize=1;" vertex="1" parent="1">
          <mxGeometry x="180.75" y="210" width="120" height="60" as="geometry" />
        </mxCell>
        <mxCell id="2rnmiaXH-qt7gfL0jKxg-18" style="edgeStyle=orthogonalEdgeStyle;rounded=0;orthogonalLoop=1;jettySize=auto;html=1;exitX=0.5;exitY=1;exitDx=0;exitDy=0;" edge="1" parent="1" source="2rnmiaXH-qt7gfL0jKxg-16" target="2rnmiaXH-qt7gfL0jKxg-19">
          <mxGeometry relative="1" as="geometry">
            <mxPoint x="250" y="720" as="targetPoint" />
          </mxGeometry>
        </mxCell>
        <mxCell id="2rnmiaXH-qt7gfL0jKxg-16" value="" style="ellipse;whiteSpace=wrap;html=1;aspect=fixed;" vertex="1" parent="1">
          <mxGeometry x="230.75" y="630" width="20" height="20" as="geometry" />
        </mxCell>
        <mxCell id="2rnmiaXH-qt7gfL0jKxg-19" value="end" style="ellipse;whiteSpace=wrap;html=1;" vertex="1" parent="1">
          <mxGeometry x="180.75" y="745" width="120" height="80" as="geometry" />
        </mxCell>
        <mxCell id="2rnmiaXH-qt7gfL0jKxg-23" style="edgeStyle=orthogonalEdgeStyle;rounded=0;orthogonalLoop=1;jettySize=auto;html=1;exitX=0;exitY=0.5;exitDx=0;exitDy=0;entryX=1;entryY=0.5;entryDx=0;entryDy=0;" edge="1" parent="1" source="2rnmiaXH-qt7gfL0jKxg-21" target="JOSGX9OFzxFhcf6wayFj-6">
          <mxGeometry relative="1" as="geometry" />
        </mxCell>
        <mxCell id="2rnmiaXH-qt7gfL0jKxg-21" value="" style="ellipse;whiteSpace=wrap;html=1;aspect=fixed;" vertex="1" parent="1">
          <mxGeometry x="649.75" y="230" width="20" height="20" as="geometry" />
        </mxCell>
        <mxCell id="2rnmiaXH-qt7gfL0jKxg-28" value="" style="edgeStyle=orthogonalEdgeStyle;rounded=0;orthogonalLoop=1;jettySize=auto;html=1;exitX=1;exitY=0.5;exitDx=0;exitDy=0;entryX=1;entryY=0.5;entryDx=0;entryDy=0;" edge="1" parent="1" source="2rnmiaXH-qt7gfL0jKxg-1" target="2rnmiaXH-qt7gfL0jKxg-27">
          <mxGeometry relative="1" as="geometry">
            <mxPoint x="670" y="240" as="targetPoint" />
            <mxPoint x="720" y="785" as="sourcePoint" />
          </mxGeometry>
        </mxCell>
        <mxCell id="2rnmiaXH-qt7gfL0jKxg-27" value="" style="ellipse;whiteSpace=wrap;html=1;aspect=fixed;" vertex="1" parent="1">
          <mxGeometry x="730" y="775" width="20" height="20" as="geometry" />
        </mxCell>
      </root>
    </mxGraphModel>
  </diagram>
</mxfile>
